  0
SECTION
  2
HEADER
  9
$ACADVER
  1
AC1009
  9
$EXTMIN
 10
0.0
 20
0.0
 30
0.0
  9
$EXTMAX
 10
1000.0
 20
1000.0
 30
0.0
  9
$FILLMODE
 70
 0
  9
$SPLFRAME
 70
 1
  0
ENDSEC
  0
SECTION
  2
TABLES
  0
TABLE
  2
LAYER
 70
1
  0
LAYER
  2
0
 70
     0
 62
     7
  6
CONTINUOUS
  0
ENDTAB
  0
ENDSEC
  0
SECTION
  2
ENTITIES
  0
LINE
  8
0
 62
     0
 10
29.0959
 20
43.5875
 30
0.0
 11
31.5254
 21
43.3462
 31
0.0
  0
LINE
  8
0
 62
     0
 10
31.5254
 20
43.3462
 30
0.0
 11
31.5654
 21
43.3419
 31
0.0
  0
LINE
  8
0
 62
     0
 10
31.5654
 20
43.3419
 30
0.0
 11
31.8754
 21
43.2523
 31
0.0
  0
LINE
  8
0
 62
     0
 10
31.8754
 20
43.2523
 30
0.0
 11
31.8988
 21
43.2386
 31
0.0
  0
LINE
  8
0
 62
     0
 10
31.8988
 20
43.2386
 30
0.0
 11
31.9291
 21
43.2209
 31
0.0
  0
LINE
  8
0
 62
     0
 10
31.9291
 20
43.2209
 30
0.0
 11
32.129
 21
42.9521
 31
0.0
  0
LINE
  8
0
 62
     0
 10
32.129
 20
42.9521
 30
0.0
 11
32.1386
 21
42.9161
 31
0.0
  0
LINE
  8
0
 62
     0
 10
32.1386
 20
42.9161
 30
0.0
 11
32.1469
 21
42.872
 31
0.0
  0
LINE
  8
0
 62
     0
 10
32.1469
 20
42.872
 30
0.0
 11
31.9236
 21
42.5595
 31
0.0
  0
LINE
  8
0
 62
     0
 10
31.9236
 20
42.5595
 30
0.0
 11
31.8713
 21
42.5415
 31
0.0
  0
LINE
  8
0
 62
     0
 10
31.8713
 20
42.5415
 30
0.0
 11
31.8217
 21
42.5291
 31
0.0
  0
LINE
  8
0
 62
     0
 10
31.8217
 20
42.5291
 30
0.0
 11
31.3173
 21
42.4614
 31
0.0
  0
LINE
  8
0
 62
     0
 10
31.3173
 20
42.4614
 30
0.0
 11
31.1506
 21
42.4614
 31
0.0
  0
LINE
  8
0
 62
     0
 10
31.1506
 20
42.4614
 30
0.0
 11
25.6522
 21
41.844
 31
0.0
  0
LINE
  8
0
 62
     0
 10
25.6522
 20
41.844
 30
0.0
 11
25.5709
 21
41.8359
 31
0.0
  0
LINE
  8
0
 62
     0
 10
25.5709
 20
41.8359
 30
0.0
 11
25.1506
 21
41.7904
 31
0.0
  0
LINE
  8
0
 62
     0
 10
25.1506
 20
41.7904
 30
0.0
 11
25.0114
 21
41.7904
 31
0.0
  0
LINE
  8
0
 62
     0
 10
25.0114
 20
41.7904
 30
0.0
 11
24.784
 21
41.7904
 31
0.0
  0
LINE
  8
0
 62
     0
 10
24.784
 20
41.7904
 30
0.0
 11
24.1611
 21
42.0151
 31
0.0
  0
LINE
  8
0
 62
     0
 10
24.1611
 20
42.0151
 30
0.0
 11
24.1033
 21
42.0592
 31
0.0
  0
LINE
  8
0
 62
     0
 10
24.1033
 20
42.0592
 30
0.0
 11
24.0495
 21
42.1086
 31
0.0
  0
LINE
  8
0
 62
     0
 10
24.0495
 20
42.1086
 30
0.0
 11
23.7822
 21
42.6956
 31
0.0
  0
LINE
  8
0
 62
     0
 10
23.7822
 20
42.6956
 30
0.0
 11
23.7822
 21
42.89
 31
0.0
  0
LINE
  8
0
 62
     0
 10
23.7822
 20
42.89
 30
0.0
 11
23.7822
 21
43.1574
 31
0.0
  0
LINE
  8
0
 62
     0
 10
23.7822
 20
43.1574
 30
0.0
 11
23.9558
 21
43.9568
 31
0.0
  0
LINE
  8
0
 62
     0
 10
23.9558
 20
43.9568
 30
0.0
 11
24.361
 21
45.0356
 31
0.0
  0
LINE
  8
0
 62
     0
 10
24.361
 20
45.0356
 30
0.0
 11
24.4767
 21
45.2769
 31
0.0
  0
LINE
  8
0
 62
     0
 10
24.4767
 20
45.2769
 30
0.0
 11
24.5966
 21
45.5179
 31
0.0
  0
LINE
  8
0
 62
     0
 10
24.5966
 20
45.5179
 30
0.0
 11
25.9981
 21
47.6635
 31
0.0
  0
LINE
  8
0
 62
     0
 10
25.9981
 20
47.6635
 30
0.0
 11
26.1593
 21
47.8511
 31
0.0
  0
LINE
  8
0
 62
     0
 10
26.1593
 20
47.8511
 30
0.0
 11
26.2337
 21
47.9407
 31
0.0
  0
LINE
  8
0
 62
     0
 10
26.2337
 20
47.9407
 30
0.0
 11
27.1198
 21
48.4614
 31
0.0
  0
LINE
  8
0
 62
     0
 10
27.1198
 20
48.4614
 30
0.0
 11
28.6811
 21
49.0802
 31
0.0
  0
LINE
  8
0
 62
     0
 10
28.6811
 20
49.0802
 30
0.0
 11
29.0959
 21
49.2181
 31
0.0
  0
LINE
  8
0
 62
     0
 10
29.0959
 20
49.2181
 30
0.0
 11
29.5576
 21
49.3751
 31
0.0
  0
LINE
  8
0
 62
     0
 10
29.5576
 20
49.3751
 30
0.0
 11
34.6976
 21
50.6483
 31
0.0
  0
LINE
  8
0
 62
     0
 10
34.6976
 20
50.6483
 30
0.0
 11
35.2626
 21
50.7464
 31
0.0
  0
LINE
  8
0
 62
     0
 10
35.2626
 20
50.7464
 30
0.0
 11
35.9435
 21
50.8674
 31
0.0
  0
LINE
  8
0
 62
     0
 10
35.9435
 20
50.8674
 30
0.0
 11
41.2584
 21
51.4696
 31
0.0
  0
LINE
  8
0
 62
     0
 10
41.2584
 20
51.4696
 30
0.0
 11
43.0308
 21
51.4696
 31
0.0
  0
LINE
  8
0
 62
     0
 10
43.0308
 20
51.4696
 30
0.0
 11
43.6933
 21
51.4696
 31
0.0
  0
LINE
  8
0
 62
     0
 10
43.6933
 20
51.4696
 30
0.0
 11
45.6861
 21
51.3898
 31
0.0
  0
LINE
  8
0
 62
     0
 10
45.6861
 20
51.3898
 30
0.0
 11
47.5601
 21
51.2025
 31
0.0
  0
LINE
  8
0
 62
     0
 10
47.5601
 20
51.2025
 30
0.0
 11
47.8896
 21
51.1485
 31
0.0
  0
LINE
  8
0
 62
     0
 10
47.8896
 20
51.1485
 30
0.0
 11
48.3429
 21
51.0727
 31
0.0
  0
LINE
  8
0
 62
     0
 10
48.3429
 20
51.0727
 30
0.0
 11
50.2916
 21
50.552
 31
0.0
  0
LINE
  8
0
 62
     0
 10
50.2916
 20
50.552
 30
0.0
 11
51.8128
 21
49.845
 31
0.0
  0
LINE
  8
0
 62
     0
 10
51.8128
 20
49.845
 30
0.0
 11
52.0541
 21
49.6743
 31
0.0
  0
LINE
  8
0
 62
     0
 10
52.0541
 20
49.6743
 30
0.0
 11
52.3476
 21
49.4647
 31
0.0
  0
LINE
  8
0
 62
     0
 10
52.3476
 20
49.4647
 30
0.0
 11
53.3756
 21
48.1789
 31
0.0
  0
LINE
  8
0
 62
     0
 10
53.3756
 20
48.1789
 30
0.0
 11
53.8166
 21
46.7071
 31
0.0
  0
LINE
  8
0
 62
     0
 10
53.8166
 20
46.7071
 30
0.0
 11
53.8166
 21
46.2153
 31
0.0
  0
LINE
  8
0
 62
     0
 10
53.8166
 20
46.2153
 30
0.0
 11
53.8166
 21
45.4036
 31
0.0
  0
LINE
  8
0
 62
     0
 10
53.8166
 20
45.4036
 30
0.0
 11
53.1883
 21
42.9645
 31
0.0
  0
LINE
  8
0
 62
     0
 10
53.1883
 20
42.9645
 30
0.0
 11
51.7246
 21
40.688
 31
0.0
  0
LINE
  8
0
 62
     0
 10
51.7246
 20
40.688
 30
0.0
 11
51.3073
 21
40.2897
 31
0.0
  0
LINE
  8
0
 62
     0
 10
51.3073
 20
40.2897
 30
0.0
 11
50.9242
 21
39.9288
 31
0.0
  0
LINE
  8
0
 62
     0
 10
50.9242
 20
39.9288
 30
0.0
 11
48.6502
 21
38.4873
 31
0.0
  0
LINE
  8
0
 62
     0
 10
48.6502
 20
38.4873
 30
0.0
 11
45.8971
 21
37.5377
 31
0.0
  0
LINE
  8
0
 62
     0
 10
45.8971
 20
37.5377
 30
0.0
 11
45.2741
 21
37.4205
 31
0.0
  0
LINE
  8
0
 62
     0
 10
45.2741
 20
37.4205
 30
0.0
 11
32.5658
 21
35.0876
 31
0.0
  0
LINE
  8
0
 62
     0
 10
32.5658
 20
35.0876
 30
0.0
 11
32.7973
 21
35.0118
 31
0.0
  0
LINE
  8
0
 62
     0
 10
32.7973
 20
35.0118
 30
0.0
 11
35.1331
 21
34.2525
 31
0.0
  0
LINE
  8
0
 62
     0
 10
35.1331
 20
34.2525
 30
0.0
 11
35.3688
 21
34.1753
 31
0.0
  0
LINE
  8
0
 62
     0
 10
35.3688
 20
34.1753
 30
0.0
 11
35.8401
 21
34.0238
 31
0.0
  0
LINE
  8
0
 62
     0
 10
35.8401
 20
34.0238
 30
0.0
 11
40.4894
 21
32.5052
 31
0.0
  0
LINE
  8
0
 62
     0
 10
40.4894
 20
32.5052
 30
0.0
 11
40.9483
 21
32.3522
 31
0.0
  0
LINE
  8
0
 62
     0
 10
40.9483
 20
32.3522
 30
0.0
 11
41.4059
 21
32.2048
 31
0.0
  0
LINE
  8
0
 62
     0
 10
41.4059
 20
32.2048
 30
0.0
 11
43.4234
 21
31.5488
 31
0.0
  0
LINE
  8
0
 62
     0
 10
43.4234
 20
31.5488
 30
0.0
 11
45.0769
 21
30.999
 31
0.0
  0
LINE
  8
0
 62
     0
 10
45.0769
 20
30.999
 30
0.0
 11
45.3542
 21
30.9039
 31
0.0
  0
LINE
  8
0
 62
     0
 10
45.3542
 20
30.9039
 30
0.0
 11
45.562
 21
30.8281
 31
0.0
  0
LINE
  8
0
 62
     0
 10
45.562
 20
30.8281
 30
0.0
 11
47.275
 21
30.1363
 31
0.0
  0
LINE
  8
0
 62
     0
 10
47.275
 20
30.1363
 30
0.0
 11
47.4087
 21
30.0729
 31
0.0
  0
LINE
  8
0
 62
     0
 10
47.4087
 20
30.0729
 30
0.0
 11
47.5767
 21
29.993
 31
0.0
  0
LINE
  8
0
 62
     0
 10
47.5767
 20
29.993
 30
0.0
 11
48.8019
 21
29.1221
 31
0.0
  0
LINE
  8
0
 62
     0
 10
48.8019
 20
29.1221
 30
0.0
 11
48.8777
 21
29.027
 31
0.0
  0
LINE
  8
0
 62
     0
 10
48.8777
 20
29.027
 30
0.0
 11
48.9574
 21
28.9388
 31
0.0
  0
LINE
  8
0
 62
     0
 10
48.9574
 20
28.9388
 30
0.0
 11
49.6023
 21
27.7992
 31
0.0
  0
LINE
  8
0
 62
     0
 10
49.6023
 20
27.7992
 30
0.0
 11
49.6521
 21
27.66
 31
0.0
  0
LINE
  8
0
 62
     0
 10
49.6521
 20
27.66
 30
0.0
 11
49.7004
 21
27.5222
 31
0.0
  0
LINE
  8
0
 62
     0
 10
49.7004
 20
27.5222
 30
0.0
 11
49.9456
 21
26.3991
 31
0.0
  0
LINE
  8
0
 62
     0
 10
49.9456
 20
26.3991
 30
0.0
 11
49.9456
 21
26.0242
 31
0.0
  0
LINE
  8
0
 62
     0
 10
49.9456
 20
26.0242
 30
0.0
 11
49.9456
 21
25.7555
 31
0.0
  0
LINE
  8
0
 62
     0
 10
49.9456
 20
25.7555
 30
0.0
 11
49.7649
 21
24.9466
 31
0.0
  0
LINE
  8
0
 62
     0
 10
49.7649
 20
24.9466
 30
0.0
 11
49.3448
 21
24.3582
 31
0.0
  0
LINE
  8
0
 62
     0
 10
49.3448
 20
24.3582
 30
0.0
 11
49.2248
 21
24.281
 31
0.0
  0
LINE
  8
0
 62
     0
 10
49.2248
 20
24.281
 30
0.0
 11
49.1892
 21
24.2645
 31
0.0
  0
LINE
  8
0
 62
     0
 10
49.1892
 20
24.2645
 30
0.0
 11
48.835
 21
24.1749
 31
0.0
  0
LINE
  8
0
 62
     0
 10
48.835
 20
24.1749
 30
0.0
 11
48.7179
 21
24.1749
 31
0.0
  0
LINE
  8
0
 62
     0
 10
48.7179
 20
24.1749
 30
0.0
 11
48.5055
 21
24.1749
 31
0.0
  0
LINE
  8
0
 62
     0
 10
48.5055
 20
24.1749
 30
0.0
 11
47.8702
 21
24.3623
 31
0.0
  0
LINE
  8
0
 62
     0
 10
47.8702
 20
24.3623
 30
0.0
 11
46.7734
 21
24.8006
 31
0.0
  0
LINE
  8
0
 62
     0
 10
46.7734
 20
24.8006
 30
0.0
 11
46.5018
 21
24.9246
 31
0.0
  0
LINE
  8
0
 62
     0
 10
46.5018
 20
24.9246
 30
0.0
 11
46.3282
 21
25.0059
 31
0.0
  0
LINE
  8
0
 62
     0
 10
46.3282
 20
25.0059
 30
0.0
 11
45.587
 21
25.3352
 31
0.0
  0
LINE
  8
0
 62
     0
 10
45.587
 20
25.3352
 30
0.0
 11
45.0151
 21
25.5654
 31
0.0
  0
LINE
  8
0
 62
     0
 10
45.0151
 20
25.5654
 30
0.0
 11
44.927
 21
25.5957
 31
0.0
  0
LINE
  8
0
 62
     0
 10
44.927
 20
25.5957
 30
0.0
 11
30.3499
 21
31.0389
 31
0.0
  0
LINE
  8
0
 62
     0
 10
30.3499
 20
31.0389
 30
0.0
 11
27.1735
 21
26.4542
 31
0.0
  0
LINE
  8
0
 62
     0
 10
27.1735
 20
26.4542
 30
0.0
 11
27.1818
 21
26.4004
 31
0.0
  0
LINE
  8
0
 62
     0
 10
27.1818
 20
26.4004
 30
0.0
 11
27.2273
 21
26.1193
 31
0.0
  0
LINE
  8
0
 62
     0
 10
27.2273
 20
26.1193
 30
0.0
 11
27.2273
 21
26.0242
 31
0.0
  0
LINE
  8
0
 62
     0
 10
27.2273
 20
26.0242
 30
0.0
 11
27.2273
 21
25.8506
 31
0.0
  0
LINE
  8
0
 62
     0
 10
27.2273
 20
25.8506
 30
0.0
 11
27.1157
 21
25.3945
 31
0.0
  0
LINE
  8
0
 62
     0
 10
27.1157
 20
25.3945
 30
0.0
 11
27.0936
 21
25.327
 31
0.0
  0
LINE
  8
0
 62
     0
 10
27.0936
 20
25.327
 30
0.0
 11
27.0523
 21
25.2029
 31
0.0
  0
LINE
  8
0
 62
     0
 10
27.0523
 20
25.2029
 30
0.0
 11
26.6719
 21
24.6379
 31
0.0
  0
LINE
  8
0
 62
     0
 10
26.6719
 20
24.6379
 30
0.0
 11
26.0518
 21
24.1529
 31
0.0
  0
LINE
  8
0
 62
     0
 10
26.0518
 20
24.1529
 30
0.0
 11
25.8919
 21
24.0675
 31
0.0
  0
LINE
  8
0
 62
     0
 10
25.8919
 20
24.0675
 30
0.0
 11
25.7542
 21
23.9958
 31
0.0
  0
LINE
  8
0
 62
     0
 10
25.7542
 20
23.9958
 30
0.0
 11
24.7165
 21
23.6389
 31
0.0
  0
LINE
  8
0
 62
     0
 10
24.7165
 20
23.6389
 30
0.0
 11
24.3706
 21
23.6389
 31
0.0
  0
LINE
  8
0
 62
     0
 10
24.3706
 20
23.6389
 30
0.0
 11
24.3169
 21
23.6389
 31
0.0
  0
LINE
  8
0
 62
     0
 10
24.3169
 20
23.6389
 30
0.0
 11
24.1653
 21
23.6609
 31
0.0
  0
LINE
  8
0
 62
     0
 10
24.1653
 20
23.6609
 30
0.0
 11
24.157
 21
23.665
 31
0.0
  0
LINE
  8
0
 62
     0
 10
24.157
 20
23.665
 30
0.0
 11
24.0675
 21
23.6926
 31
0.0
  0
LINE
  8
0
 62
     0
 10
24.0675
 20
23.6926
 30
0.0
 11
23.7546
 21
23.9875
 31
0.0
  0
LINE
  8
0
 62
     0
 10
23.7546
 20
23.9875
 30
0.0
 11
23.6223
 21
24.4698
 31
0.0
  0
LINE
  8
0
 62
     0
 10
23.6223
 20
24.4698
 30
0.0
 11
23.6223
 21
24.6297
 31
0.0
  0
LINE
  8
0
 62
     0
 10
23.6223
 20
24.6297
 30
0.0
 11
23.6223
 21
24.7247
 31
0.0
  0
LINE
  8
0
 62
     0
 10
23.6223
 20
24.7247
 30
0.0
 11
23.6444
 21
24.9756
 31
0.0
  0
LINE
  8
0
 62
     0
 10
23.6444
 20
24.9756
 30
0.0
 11
23.6499
 21
25.0059
 31
0.0
  0
LINE
  8
0
 62
     0
 10
23.6499
 20
25.0059
 30
0.0
 11
23.6582
 21
25.0376
 31
0.0
  0
LINE
  8
0
 62
     0
 10
23.6582
 20
25.0376
 30
0.0
 11
23.7918
 21
25.3504
 31
0.0
  0
LINE
  8
0
 62
     0
 10
23.7918
 20
25.3504
 30
0.0
 11
23.8097
 21
25.3807
 31
0.0
  0
LINE
  8
0
 62
     0
 10
23.8097
 20
25.3807
 30
0.0
 11
27.6545
 21
32.0849
 31
0.0
  0
LINE
  8
0
 62
     0
 10
27.6545
 20
32.0849
 30
0.0
 11
27.5249
 21
32.1069
 31
0.0
  0
LINE
  8
0
 62
     0
 10
27.5249
 20
32.1069
 30
0.0
 11
26.4335
 21
32.5548
 31
0.0
  0
LINE
  8
0
 62
     0
 10
26.4335
 20
32.5548
 30
0.0
 11
26.3453
 21
32.6209
 31
0.0
  0
LINE
  8
0
 62
     0
 10
26.3453
 20
32.6209
 30
0.0
 11
26.2599
 21
32.6885
 31
0.0
  0
LINE
  8
0
 62
     0
 10
26.2599
 20
32.6885
 30
0.0
 11
25.8823
 21
33.4477
 31
0.0
  0
LINE
  8
0
 62
     0
 10
25.8823
 20
33.4477
 30
0.0
 11
25.8919
 21
33.5318
 31
0.0
  0
LINE
  8
0
 62
     0
 10
25.8919
 20
33.5318
 30
0.0
 11
25.8919
 21
33.7385
 31
0.0
  0
LINE
  8
0
 62
     0
 10
25.8919
 20
33.7385
 30
0.0
 11
26.1111
 21
34.3572
 31
0.0
  0
LINE
  8
0
 62
     0
 10
26.1111
 20
34.3572
 30
0.0
 11
26.6251
 21
35.1551
 31
0.0
  0
LINE
  8
0
 62
     0
 10
26.6251
 20
35.1551
 30
0.0
 11
26.7725
 21
35.3289
 31
0.0
  0
LINE
  8
0
 62
     0
 10
26.7725
 20
35.3289
 30
0.0
 11
26.9186
 21
35.5078
 31
0.0
  0
LINE
  8
0
 62
     0
 10
26.9186
 20
35.5078
 30
0.0
 11
27.7137
 21
36.2479
 31
0.0
  0
LINE
  8
0
 62
     0
 10
27.7137
 20
36.2479
 30
0.0
 11
28.5874
 21
36.7813
 31
0.0
  0
LINE
  8
0
 62
     0
 10
28.5874
 20
36.7813
 30
0.0
 11
28.7748
 21
36.8572
 31
0.0
  0
LINE
  8
0
 62
     0
 10
28.7748
 20
36.8572
 30
0.0
 11
28.8768
 21
36.8984
 31
0.0
  0
LINE
  8
0
 62
     0
 10
28.8768
 20
36.8984
 30
0.0
 11
30.3678
 21
37.2551
 31
0.0
  0
LINE
  8
0
 62
     0
 10
30.3678
 20
37.2551
 30
0.0
 11
30.5635
 21
37.2854
 31
0.0
  0
LINE
  8
0
 62
     0
 10
30.5635
 20
37.2854
 30
0.0
 11
30.6255
 21
37.2953
 31
0.0
  0
LINE
  8
0
 62
     0
 10
30.6255
 20
37.2953
 30
0.0
 11
31.5157
 21
37.4082
 31
0.0
  0
LINE
  8
0
 62
     0
 10
31.5157
 20
37.4082
 30
0.0
 11
31.6315
 21
37.4205
 31
0.0
  0
LINE
  8
0
 62
     0
 10
31.6315
 20
37.4205
 30
0.0
 11
37.0776
 21
45.5443
 31
0.0
  0
LINE
  8
0
 62
     0
 10
37.0776
 20
45.5443
 30
0.0
 11
36.7482
 21
45.514
 31
0.0
  0
LINE
  8
0
 62
     0
 10
36.7482
 20
45.514
 30
0.0
 11
33.2107
 21
44.8881
 31
0.0
  0
LINE
  8
0
 62
     0
 10
33.2107
 20
44.8881
 30
0.0
 11
32.8331
 21
44.7933
 31
0.0
  0
LINE
  8
0
 62
     0
 10
32.8331
 20
44.7933
 30
0.0
 11
32.6499
 21
44.7492
 31
0.0
  0
LINE
  8
0
 62
     0
 10
32.6499
 20
44.7492
 30
0.0
 11
31.0706
 21
44.3025
 31
0.0
  0
LINE
  8
0
 62
     0
 10
31.0706
 20
44.3025
 30
0.0
 11
30.937
 21
44.257
 31
0.0
  0
LINE
  8
0
 62
     0
 10
30.937
 20
44.257
 30
0.0
 11
30.8033
 21
44.2172
 31
0.0
  0
LINE
  8
0
 62
     0
 10
30.8033
 20
44.2172
 30
0.0
 11
29.2681
 21
43.6591
 31
0.0
  0
LINE
  8
0
 62
     0
 10
29.2681
 20
43.6591
 30
0.0
 11
29.0959
 21
43.5875
 31
0.0
  0
LINE
  8
0
 62
     0
 10
38.8662
 20
44.1773
 30
0.0
 11
38.8207
 21
44.0792
 31
0.0
  0
LINE
  8
0
 62
     0
 10
38.8207
 20
44.0792
 30
0.0
 11
38.3769
 21
43.229
 31
0.0
  0
LINE
  8
0
 62
     0
 10
38.3769
 20
43.229
 30
0.0
 11
38.3328
 21
43.1574
 31
0.0
  0
LINE
  8
0
 62
     0
 10
38.3328
 20
43.1574
 30
0.0
 11
38.2655
 21
43.0555
 31
0.0
  0
LINE
  8
0
 62
     0
 10
38.2655
 20
43.0555
 30
0.0
 11
37.7321
 21
42.23
 31
0.0
  0
LINE
  8
0
 62
     0
 10
37.7321
 20
42.23
 30
0.0
 11
37.6922
 21
42.1665
 31
0.0
  0
LINE
  8
0
 62
     0
 10
37.6922
 20
42.1665
 30
0.0
 11
35.2089
 21
38.3589
 31
0.0
  0
LINE
  8
0
 62
     0
 10
35.2089
 20
38.3589
 30
0.0
 11
44.8991
 21
40.9056
 31
0.0
  0
LINE
  8
0
 62
     0
 10
44.8991
 20
40.9056
 30
0.0
 11
45.2328
 21
40.991
 31
0.0
  0
LINE
  8
0
 62
     0
 10
45.2328
 20
40.991
 30
0.0
 11
46.9346
 21
41.6444
 31
0.0
  0
LINE
  8
0
 62
     0
 10
46.9346
 20
41.6444
 30
0.0
 11
48.6805
 21
42.6007
 31
0.0
  0
LINE
  8
0
 62
     0
 10
48.6805
 20
42.6007
 30
0.0
 11
49.0375
 21
42.8364
 31
0.0
  0
LINE
  8
0
 62
     0
 10
49.0375
 20
42.8364
 30
0.0
 11
49.2979
 21
43.0086
 31
0.0
  0
LINE
  8
0
 62
     0
 10
49.2979
 20
43.0086
 30
0.0
 11
50.0503
 21
43.5737
 31
0.0
  0
LINE
  8
0
 62
     0
 10
50.0503
 20
43.5737
 30
0.0
 11
50.7393
 21
44.2309
 31
0.0
  0
LINE
  8
0
 62
     0
 10
50.7393
 20
44.2309
 30
0.0
 11
51.1044
 21
44.8084
 31
0.0
  0
LINE
  8
0
 62
     0
 10
51.1044
 20
44.8084
 30
0.0
 11
51.1761
 21
45.1901
 31
0.0
  0
LINE
  8
0
 62
     0
 10
51.1761
 20
45.1901
 30
0.0
 11
51.1471
 21
45.303
 31
0.0
  0
LINE
  8
0
 62
     0
 10
51.1471
 20
45.303
 30
0.0
 11
51.1115
 21
45.4381
 31
0.0
  0
LINE
  8
0
 62
     0
 10
51.1115
 20
45.4381
 30
0.0
 11
50.5188
 21
45.9341
 31
0.0
  0
LINE
  8
0
 62
     0
 10
50.5188
 20
45.9341
 30
0.0
 11
49.3765
 21
46.1973
 31
0.0
  0
LINE
  8
0
 62
     0
 10
49.3765
 20
46.1973
 30
0.0
 11
49.065
 21
46.2153
 31
0.0
  0
LINE
  8
0
 62
     0
 10
49.065
 20
46.2153
 30
0.0
 11
48.7578
 21
46.2386
 31
0.0
  0
LINE
  8
0
 62
     0
 10
48.7578
 20
46.2386
 30
0.0
 11
46.5847
 21
46.349
 31
0.0
  0
LINE
  8
0
 62
     0
 10
46.5847
 20
46.349
 30
0.0
 11
45.8611
 21
46.349
 31
0.0
  0
LINE
  8
0
 62
     0
 10
45.8611
 20
46.349
 30
0.0
 11
39.2395
 21
45.9204
 31
0.0
  0
LINE
  8
0
 62
     0
 10
39.2395
 20
45.9204
 30
0.0
 11
39.2395
 21
45.4851
 31
0.0
  0
LINE
  8
0
 62
     0
 10
39.2395
 20
45.4851
 30
0.0
 11
38.9283
 21
44.3163
 31
0.0
  0
LINE
  8
0
 62
     0
 10
38.9283
 20
44.3163
 30
0.0
 11
38.8662
 21
44.1773
 31
0.0
  0
LINE
  8
0
 62
     0
 10
57.7825
 20
27.3348
 30
0.0
 11
57.7825
 21
27.5801
 31
0.0
  0
LINE
  8
0
 62
     0
 10
57.7825
 20
27.5801
 30
0.0
 11
57.9466
 21
28.3159
 31
0.0
  0
LINE
  8
0
 62
     0
 10
57.9466
 20
28.3159
 30
0.0
 11
58.3805
 21
30.8074
 31
0.0
  0
LINE
  8
0
 62
     0
 10
58.3805
 20
30.8074
 30
0.0
 11
58.995
 21
34.3021
 31
0.0
  0
LINE
  8
0
 62
     0
 10
58.995
 20
34.3021
 30
0.0
 11
59.7006
 21
38.2972
 31
0.0
  0
LINE
  8
0
 62
     0
 10
59.7006
 20
38.2972
 30
0.0
 11
60.4075
 21
42.2864
 31
0.0
  0
LINE
  8
0
 62
     0
 10
60.4075
 20
42.2864
 30
0.0
 11
61.0263
 21
45.7648
 31
0.0
  0
LINE
  8
0
 62
     0
 10
61.0263
 20
45.7648
 30
0.0
 11
61.4687
 21
48.2258
 31
0.0
  0
LINE
  8
0
 62
     0
 10
61.4687
 20
48.2258
 30
0.0
 11
61.637
 21
49.1589
 31
0.0
  0
LINE
  8
0
 62
     0
 10
61.637
 20
49.1589
 30
0.0
 11
61.6451
 21
49.167
 31
0.0
  0
LINE
  8
0
 62
     0
 10
61.6451
 20
49.167
 30
0.0
 11
61.6521
 21
49.174
 31
0.0
  0
LINE
  8
0
 62
     0
 10
61.6521
 20
49.174
 30
0.0
 11
62.2833
 21
48.9493
 31
0.0
  0
LINE
  8
0
 62
     0
 10
62.2833
 20
48.9493
 30
0.0
 11
63.9561
 21
48.3528
 31
0.0
  0
LINE
  8
0
 62
     0
 10
63.9561
 20
48.3528
 30
0.0
 11
66.3279
 21
47.5008
 31
0.0
  0
LINE
  8
0
 62
     0
 10
66.3279
 20
47.5008
 30
0.0
 11
69.0619
 21
46.5155
 31
0.0
  0
LINE
  8
0
 62
     0
 10
69.0619
 20
46.5155
 30
0.0
 11
71.8234
 21
45.5154
 31
0.0
  0
LINE
  8
0
 62
     0
 10
71.8234
 20
45.5154
 30
0.0
 11
74.2763
 21
44.6236
 31
0.0
  0
LINE
  8
0
 62
     0
 10
74.2763
 20
44.6236
 30
0.0
 11
76.0871
 21
43.9607
 31
0.0
  0
LINE
  8
0
 62
     0
 10
76.0871
 20
43.9607
 30
0.0
 11
76.7652
 21
43.7127
 31
0.0
  0
LINE
  8
0
 62
     0
 10
76.7652
 20
43.7127
 30
0.0
 11
76.9193
 21
43.6481
 31
0.0
  0
LINE
  8
0
 62
     0
 10
76.9193
 20
43.6481
 30
0.0
 11
76.9264
 21
43.6453
 31
0.0
  0
LINE
  8
0
 62
     0
 10
76.9264
 20
43.6453
 30
0.0
 11
76.9126
 21
43.5529
 31
0.0
  0
LINE
  8
0
 62
     0
 10
76.9126
 20
43.5529
 30
0.0
 11
76.7059
 21
43.3077
 31
0.0
  0
LINE
  8
0
 62
     0
 10
76.7059
 20
43.3077
 30
0.0
 11
76.2536
 21
42.872
 31
0.0
  0
LINE
  8
0
 62
     0
 10
76.2536
 20
42.872
 30
0.0
 11
75.5124
 21
42.2067
 31
0.0
  0
LINE
  8
0
 62
     0
 10
75.5124
 20
42.2067
 30
0.0
 11
74.4347
 21
41.2722
 31
0.0
  0
LINE
  8
0
 62
     0
 10
74.4347
 20
41.2722
 30
0.0
 11
72.9753
 21
40.0308
 31
0.0
  0
LINE
  8
0
 62
     0
 10
72.9753
 20
40.0308
 30
0.0
 11
71.0928
 21
38.4418
 31
0.0
  0
LINE
  8
0
 62
     0
 10
71.0928
 20
38.4418
 30
0.0
 11
69.3289
 21
36.9577
 31
0.0
  0
LINE
  8
0
 62
     0
 10
69.3289
 20
36.9577
 30
0.0
 11
68.7405
 21
36.4642
 31
0.0
  0
LINE
  8
0
 62
     0
 10
68.7405
 20
36.4642
 30
0.0
 11
67.896
 21
35.7572
 31
0.0
  0
LINE
  8
0
 62
     0
 10
67.896
 20
35.7572
 30
0.0
 11
65.3644
 21
33.6324
 31
0.0
  0
LINE
  8
0
 62
     0
 10
65.3644
 20
33.6324
 30
0.0
 11
62.4113
 21
31.1506
 31
0.0
  0
LINE
  8
0
 62
     0
 10
62.4113
 20
31.1506
 30
0.0
 11
60.1984
 21
29.2888
 31
0.0
  0
LINE
  8
0
 62
     0
 10
60.1984
 20
29.2888
 30
0.0
 11
59.2155
 21
28.462
 31
0.0
  0
LINE
  8
0
 62
     0
 10
59.2155
 20
28.462
 30
0.0
 11
59.0434
 21
28.3132
 31
0.0
  0
LINE
  8
0
 62
     0
 10
59.0434
 20
28.3132
 30
0.0
 11
58.922
 21
28.2112
 31
0.0
  0
LINE
  8
0
 62
     0
 10
58.922
 20
28.2112
 30
0.0
 11
58.553
 21
27.9053
 31
0.0
  0
LINE
  8
0
 62
     0
 10
58.553
 20
27.9053
 30
0.0
 11
58.1519
 21
27.5842
 31
0.0
  0
LINE
  8
0
 62
     0
 10
58.1519
 20
27.5842
 30
0.0
 11
57.8817
 21
27.383
 31
0.0
  0
LINE
  8
0
 62
     0
 10
57.8817
 20
27.383
 30
0.0
 11
57.7825
 21
27.3348
 31
0.0
  0
LINE
  8
0
 62
     0
 10
57.7825
 20
27.3348
 30
0.0
 11
57.7825
 21
27.3348
 31
0.0
  0
LINE
  8
0
 62
     0
 10
16.1382
 20
51.0053
 30
0.0
 11
16.0693
 21
51.3803
 31
0.0
  0
LINE
  8
0
 62
     0
 10
16.0693
 20
51.3803
 30
0.0
 11
15.8695
 21
52.506
 31
0.0
  0
LINE
  8
0
 62
     0
 10
15.8695
 20
52.506
 30
0.0
 11
15.485
 21
54.6735
 31
0.0
  0
LINE
  8
0
 62
     0
 10
15.485
 20
54.6735
 30
0.0
 11
15.0344
 21
57.2453
 31
0.0
  0
LINE
  8
0
 62
     0
 10
15.0344
 20
57.2453
 30
0.0
 11
14.5603
 21
59.9489
 31
0.0
  0
LINE
  8
0
 62
     0
 10
14.5603
 20
59.9489
 30
0.0
 11
14.1125
 21
62.5189
 31
0.0
  0
LINE
  8
0
 62
     0
 10
14.1125
 20
62.5189
 30
0.0
 11
13.7363
 21
64.6878
 31
0.0
  0
LINE
  8
0
 62
     0
 10
13.7363
 20
64.6878
 30
0.0
 11
13.4786
 21
66.1871
 31
0.0
  0
LINE
  8
0
 62
     0
 10
13.4786
 20
66.1871
 30
0.0
 11
13.3835
 21
66.7466
 31
0.0
  0
LINE
  8
0
 62
     0
 10
13.3835
 20
66.7466
 30
0.0
 11
13.3876
 21
66.7508
 31
0.0
  0
LINE
  8
0
 62
     0
 10
13.3876
 20
66.7508
 30
0.0
 11
13.3918
 21
66.7561
 31
0.0
  0
LINE
  8
0
 62
     0
 10
13.3918
 20
66.7561
 30
0.0
 11
13.6481
 21
66.6612
 31
0.0
  0
LINE
  8
0
 62
     0
 10
13.6481
 20
66.6612
 30
0.0
 11
14.3784
 21
66.4009
 31
0.0
  0
LINE
  8
0
 62
     0
 10
14.3784
 20
66.4009
 30
0.0
 11
15.5126
 21
65.9927
 31
0.0
  0
LINE
  8
0
 62
     0
 10
15.5126
 20
65.9927
 30
0.0
 11
16.9843
 21
65.4611
 31
0.0
  0
LINE
  8
0
 62
     0
 10
16.9843
 20
65.4611
 30
0.0
 11
18.7262
 21
64.831
 31
0.0
  0
LINE
  8
0
 62
     0
 10
18.7262
 20
64.831
 30
0.0
 11
20.6733
 21
64.1255
 31
0.0
  0
LINE
  8
0
 62
     0
 10
20.6733
 20
64.1255
 30
0.0
 11
22.7583
 21
63.3705
 31
0.0
  0
LINE
  8
0
 62
     0
 10
22.7583
 20
63.3705
 30
0.0
 11
24.9163
 21
62.5863
 31
0.0
  0
LINE
  8
0
 62
     0
 10
24.9163
 20
62.5863
 30
0.0
 11
27.0798
 21
61.801
 31
0.0
  0
LINE
  8
0
 62
     0
 10
27.0798
 20
61.801
 30
0.0
 11
29.1827
 21
61.0362
 31
0.0
  0
LINE
  8
0
 62
     0
 10
29.1827
 20
61.0362
 30
0.0
 11
31.1602
 21
60.3169
 31
0.0
  0
LINE
  8
0
 62
     0
 10
31.1602
 20
60.3169
 30
0.0
 11
32.9434
 21
59.6678
 31
0.0
  0
LINE
  8
0
 62
     0
 10
32.9434
 20
59.6678
 30
0.0
 11
34.4689
 21
59.1111
 31
0.0
  0
LINE
  8
0
 62
     0
 10
34.4689
 20
59.1111
 30
0.0
 11
35.669
 21
58.6715
 31
0.0
  0
LINE
  8
0
 62
     0
 10
35.669
 20
58.6715
 30
0.0
 11
36.4765
 21
58.3738
 31
0.0
  0
LINE
  8
0
 62
     0
 10
36.4765
 20
58.3738
 30
0.0
 11
36.7411
 21
58.2771
 31
0.0
  0
LINE
  8
0
 62
     0
 10
36.7411
 20
58.2771
 30
0.0
 11
36.8282
 21
58.2401
 31
0.0
  0
LINE
  8
0
 62
     0
 10
36.8282
 20
58.2401
 30
0.0
 11
36.8282
 21
58.2401
 31
0.0
  0
LINE
  8
0
 62
     0
 10
36.8282
 20
58.2401
 30
0.0
 11
36.3252
 21
57.9727
 31
0.0
  0
LINE
  8
0
 62
     0
 10
36.3252
 20
57.9727
 30
0.0
 11
34.5281
 21
57.2604
 31
0.0
  0
LINE
  8
0
 62
     0
 10
34.5281
 20
57.2604
 30
0.0
 11
31.3752
 21
56.0779
 31
0.0
  0
LINE
  8
0
 62
     0
 10
31.3752
 20
56.0779
 30
0.0
 11
27.9508
 21
54.8185
 31
0.0
  0
LINE
  8
0
 62
     0
 10
27.9508
 20
54.8185
 30
0.0
 11
26.8084
 21
54.4022
 31
0.0
  0
LINE
  8
0
 62
     0
 10
26.8084
 20
54.4022
 30
0.0
 11
25.8093
 21
54.0399
 31
0.0
  0
LINE
  8
0
 62
     0
 10
25.8093
 20
54.0399
 30
0.0
 11
22.8107
 21
52.9484
 31
0.0
  0
LINE
  8
0
 62
     0
 10
22.8107
 20
52.9484
 30
0.0
 11
19.5116
 21
51.7469
 31
0.0
  0
LINE
  8
0
 62
     0
 10
19.5116
 20
51.7469
 30
0.0
 11
17.2558
 21
50.9266
 31
0.0
  0
LINE
  8
0
 62
     0
 10
17.2558
 20
50.9266
 30
0.0
 11
16.4055
 21
50.6166
 31
0.0
  0
LINE
  8
0
 62
     0
 10
16.4055
 20
50.6166
 30
0.0
 11
16.3835
 21
50.6084
 31
0.0
  0
LINE
  8
0
 62
     0
 10
16.3835
 20
50.6084
 30
0.0
 11
16.3587
 21
50.6003
 31
0.0
  0
LINE
  8
0
 62
     0
 10
16.3587
 20
50.6003
 30
0.0
 11
16.2429
 21
50.6952
 31
0.0
  0
LINE
  8
0
 62
     0
 10
16.2429
 20
50.6952
 30
0.0
 11
16.1506
 21
50.9393
 31
0.0
  0
LINE
  8
0
 62
     0
 10
16.1506
 20
50.9393
 30
0.0
 11
16.1382
 21
51.0053
 31
0.0
  0
LINE
  8
0
 62
     0
 10
22.9733
 20
12.2659
 30
0.0
 11
22.7624
 21
13.4593
 31
0.0
  0
LINE
  8
0
 62
     0
 10
22.7624
 20
13.4593
 30
0.0
 11
22.1382
 21
17.0394
 31
0.0
  0
LINE
  8
0
 62
     0
 10
22.1382
 20
17.0394
 30
0.0
 11
21.4616
 21
20.971
 31
0.0
  0
LINE
  8
0
 62
     0
 10
21.4616
 20
20.971
 30
0.0
 11
21.0137
 21
23.6513
 31
0.0
  0
LINE
  8
0
 62
     0
 10
21.0137
 20
23.6513
 30
0.0
 11
20.8552
 21
24.6531
 31
0.0
  0
LINE
  8
0
 62
     0
 10
20.8552
 20
24.6531
 30
0.0
 11
20.8621
 21
24.6724
 31
0.0
  0
LINE
  8
0
 62
     0
 10
20.8621
 20
24.6724
 30
0.0
 11
20.8621
 21
24.6724
 31
0.0
  0
LINE
  8
0
 62
     0
 10
20.8621
 20
24.6724
 30
0.0
 11
21.5456
 21
24.168
 31
0.0
  0
LINE
  8
0
 62
     0
 10
21.5456
 20
24.168
 30
0.0
 11
23.377
 21
22.6894
 31
0.0
  0
LINE
  8
0
 62
     0
 10
23.377
 20
22.6894
 30
0.0
 11
26.0739
 21
20.4639
 31
0.0
  0
LINE
  8
0
 62
     0
 10
26.0739
 20
20.4639
 30
0.0
 11
28.5405
 21
18.4092
 31
0.0
  0
LINE
  8
0
 62
     0
 10
28.5405
 20
18.4092
 30
0.0
 11
29.3605
 21
17.7216
 31
0.0
  0
LINE
  8
0
 62
     0
 10
29.3605
 20
17.7216
 30
0.0
 11
30.1804
 21
17.0339
 31
0.0
  0
LINE
  8
0
 62
     0
 10
30.1804
 20
17.0339
 30
0.0
 11
32.6374
 21
14.96
 31
0.0
  0
LINE
  8
0
 62
     0
 10
32.6374
 20
14.96
 30
0.0
 11
35.3148
 21
12.6835
 31
0.0
  0
LINE
  8
0
 62
     0
 10
35.3148
 20
12.6835
 30
0.0
 11
37.1147
 21
11.129
 31
0.0
  0
LINE
  8
0
 62
     0
 10
37.1147
 20
11.129
 30
0.0
 11
37.7705
 21
10.5434
 31
0.0
  0
LINE
  8
0
 62
     0
 10
37.7705
 20
10.5434
 30
0.0
 11
37.7652
 21
10.5296
 31
0.0
  0
LINE
  8
0
 62
     0
 10
37.7652
 20
10.5296
 30
0.0
 11
37.7486
 21
10.4965
 31
0.0
  0
LINE
  8
0
 62
     0
 10
37.7486
 20
10.4965
 30
0.0
 11
37.211
 21
10.039
 31
0.0
  0
LINE
  8
0
 62
     0
 10
37.211
 20
10.039
 30
0.0
 11
35.7904
 21
8.8277
 31
0.0
  0
LINE
  8
0
 62
     0
 10
35.7904
 20
8.8277
 30
0.0
 11
33.7909
 21
7.13825
 31
0.0
  0
LINE
  8
0
 62
     0
 10
33.7909
 20
7.13825
 30
0.0
 11
31.5006
 21
5.21451
 31
0.0
  0
LINE
  8
0
 62
     0
 10
31.5006
 20
5.21451
 30
0.0
 11
29.2075
 21
3.29627
 31
0.0
  0
LINE
  8
0
 62
     0
 10
29.2075
 20
3.29627
 30
0.0
 11
27.2025
 21
1.62609
 31
0.0
  0
LINE
  8
0
 62
     0
 10
27.2025
 20
1.62609
 30
0.0
 11
25.7735
 21
0.447862
 31
0.0
  0
LINE
  8
0
 62
     0
 10
25.7735
 20
0.447862
 30
0.0
 11
25.349
 21
0
 31
0.0
  0
LINE
  8
0
 62
     0
 10
25.349
 20
0
 30
0.0
 11
25.2084
 21
0
 31
0.0
  0
LINE
  8
0
 62
     0
 10
25.2084
 20
0
 30
0.0
 11
25.1575
 21
0
 31
0.0
  0
LINE
  8
0
 62
     0
 10
25.1575
 20
0
 30
0.0
 11
25.0073
 21
0.96876
 31
0.0
  0
LINE
  8
0
 62
     0
 10
25.0073
 20
0.96876
 30
0.0
 11
24.5194
 21
3.60355
 31
0.0
  0
LINE
  8
0
 62
     0
 10
24.5194
 20
3.60355
 30
0.0
 11
23.8166
 21
7.50341
 31
0.0
  0
LINE
  8
0
 62
     0
 10
23.8166
 20
7.50341
 30
0.0
 11
23.1813
 21
11.0753
 31
0.0
  0
LINE
  8
0
 62
     0
 10
23.1813
 20
11.0753
 30
0.0
 11
22.9733
 21
12.2659
 31
0.0
  0
LINE
  8
0
 62
     0
 10
42.1584
 20
8.18141
 30
0.0
 11
32.4845
 21
16.3077
 31
0.0
  0
LINE
  8
0
 62
     0
 10
32.4845
 20
16.3077
 30
0.0
 11
43.5776
 21
16.3435
 31
0.0
  0
LINE
  8
0
 62
     0
 10
43.5776
 20
16.3435
 30
0.0
 11
44.6539
 21
16.3477
 31
0.0
  0
LINE
  8
0
 62
     0
 10
44.6539
 20
16.3477
 30
0.0
 11
47.8882
 21
16.3532
 31
0.0
  0
LINE
  8
0
 62
     0
 10
47.8882
 20
16.3532
 30
0.0
 11
51.4269
 21
16.3518
 31
0.0
  0
LINE
  8
0
 62
     0
 10
51.4269
 20
16.3518
 30
0.0
 11
53.8289
 21
16.3421
 31
0.0
  0
LINE
  8
0
 62
     0
 10
53.8289
 20
16.3421
 30
0.0
 11
54.7176
 21
16.3311
 31
0.0
  0
LINE
  8
0
 62
     0
 10
54.7176
 20
16.3311
 30
0.0
 11
54.7261
 21
16.3229
 31
0.0
  0
LINE
  8
0
 62
     0
 10
54.7261
 20
16.3229
 30
0.0
 11
54.7426
 21
16.3063
 31
0.0
  0
LINE
  8
0
 62
     0
 10
54.7426
 20
16.3063
 30
0.0
 11
54.6294
 21
15.6283
 31
0.0
  0
LINE
  8
0
 62
     0
 10
54.6294
 20
15.6283
 30
0.0
 11
54.3348
 21
13.8314
 31
0.0
  0
LINE
  8
0
 62
     0
 10
54.3348
 20
13.8314
 30
0.0
 11
53.9034
 21
11.2985
 31
0.0
  0
LINE
  8
0
 62
     0
 10
53.9034
 20
11.2985
 30
0.0
 11
53.4003
 21
8.39089
 31
0.0
  0
LINE
  8
0
 62
     0
 10
53.4003
 20
8.39089
 30
0.0
 11
52.8863
 21
5.47218
 31
0.0
  0
LINE
  8
0
 62
     0
 10
52.8863
 20
5.47218
 30
0.0
 11
52.4274
 21
2.90491
 31
0.0
  0
LINE
  8
0
 62
     0
 10
52.4274
 20
2.90491
 30
0.0
 11
52.0859
 21
1.05144
 31
0.0
  0
LINE
  8
0
 62
     0
 10
52.0859
 20
1.05144
 30
0.0
 11
51.9589
 21
0.352778
 31
0.0
  0
LINE
  8
0
 62
     0
 10
51.9589
 20
0.352778
 30
0.0
 11
51.9257
 21
0.275608
 31
0.0
  0
LINE
  8
0
 62
     0
 10
51.9257
 20
0.275608
 30
0.0
 11
51.9232
 21
0.271473
 31
0.0
  0
LINE
  8
0
 62
     0
 10
51.9232
 20
0.271473
 30
0.0
 11
51.7934
 21
0.307303
 31
0.0
  0
LINE
  8
0
 62
     0
 10
51.7934
 20
0.307303
 30
0.0
 11
51.4255
 21
0.551215
 31
0.0
  0
LINE
  8
0
 62
     0
 10
51.4255
 20
0.551215
 30
0.0
 11
50.7848
 21
1.03766
 31
0.0
  0
LINE
  8
0
 62
     0
 10
50.7848
 20
1.03766
 30
0.0
 11
49.8341
 21
1.79558
 31
0.0
  0
LINE
  8
0
 62
     0
 10
49.8341
 20
1.79558
 30
0.0
 11
48.5331
 21
2.85943
 31
0.0
  0
LINE
  8
0
 62
     0
 10
48.5331
 20
2.85943
 30
0.0
 11
46.8464
 21
4.25813
 31
0.0
  0
LINE
  8
0
 62
     0
 10
46.8464
 20
4.25813
 30
0.0
 11
44.734
 21
6.02202
 31
0.0
  0
LINE
  8
0
 62
     0
 10
44.734
 20
6.02202
 30
0.0
 11
42.8004
 21
7.64124
 31
0.0
  0
LINE
  8
0
 62
     0
 10
42.8004
 20
7.64124
 30
0.0
 11
42.1584
 21
8.18141
 31
0.0
  0
LINE
  8
0
 62
     0
 10
53.8289
 20
51.4946
 30
0.0
 11
53.2941
 21
52.4207
 31
0.0
  0
LINE
  8
0
 62
     0
 10
53.2941
 20
52.4207
 30
0.0
 11
51.6943
 21
55.2002
 31
0.0
  0
LINE
  8
0
 62
     0
 10
51.6943
 20
55.2002
 30
0.0
 11
49.9428
 21
58.2524
 31
0.0
  0
LINE
  8
0
 62
     0
 10
49.9428
 20
58.2524
 30
0.0
 11
48.7549
 21
60.3373
 31
0.0
  0
LINE
  8
0
 62
     0
 10
48.7549
 20
60.3373
 30
0.0
 11
48.3154
 21
61.1188
 31
0.0
  0
LINE
  8
0
 62
     0
 10
48.3154
 20
61.1188
 30
0.0
 11
48.3126
 21
61.1353
 31
0.0
  0
LINE
  8
0
 62
     0
 10
48.3126
 20
61.1353
 30
0.0
 11
48.3059
 21
61.171
 31
0.0
  0
LINE
  8
0
 62
     0
 10
48.3059
 20
61.171
 30
0.0
 11
48.956
 21
61.4232
 31
0.0
  0
LINE
  8
0
 62
     0
 10
48.956
 20
61.4232
 30
0.0
 11
50.6719
 21
62.0889
 31
0.0
  0
LINE
  8
0
 62
     0
 10
50.6719
 20
62.0889
 30
0.0
 11
53.1054
 21
63.0054
 31
0.0
  0
LINE
  8
0
 62
     0
 10
53.1054
 20
63.0054
 30
0.0
 11
55.9015
 21
64.0401
 31
0.0
  0
LINE
  8
0
 62
     0
 10
55.9015
 20
64.0401
 30
0.0
 11
58.7015
 21
65.0628
 31
0.0
  0
LINE
  8
0
 62
     0
 10
58.7015
 20
65.0628
 30
0.0
 11
61.1547
 21
65.9433
 31
0.0
  0
LINE
  8
0
 62
     0
 10
61.1547
 20
65.9433
 30
0.0
 11
62.9035
 21
66.5508
 31
0.0
  0
LINE
  8
0
 62
     0
 10
62.9035
 20
66.5508
 30
0.0
 11
63.5663
 21
66.7812
 31
0.0
  0
LINE
  8
0
 62
     0
 10
63.5663
 20
66.7812
 30
0.0
 11
63.5938
 21
66.7537
 31
0.0
  0
LINE
  8
0
 62
     0
 10
63.5938
 20
66.7537
 30
0.0
 11
63.6034
 21
66.7438
 31
0.0
  0
LINE
  8
0
 62
     0
 10
63.6034
 20
66.7438
 30
0.0
 11
63.4503
 21
65.7518
 31
0.0
  0
LINE
  8
0
 62
     0
 10
63.4503
 20
65.7518
 30
0.0
 11
63.0068
 21
63.0742
 31
0.0
  0
LINE
  8
0
 62
     0
 10
63.0068
 20
63.0742
 30
0.0
 11
62.3316
 21
59.1316
 31
0.0
  0
LINE
  8
0
 62
     0
 10
62.3316
 20
59.1316
 30
0.0
 11
61.7044
 21
55.5293
 31
0.0
  0
LINE
  8
0
 62
     0
 10
61.7044
 20
55.5293
 30
0.0
 11
61.4938
 21
54.3292
 31
0.0
  0
LINE
  8
0
 62
     0
 10
61.4938
 20
54.3292
 30
0.0
 11
59.3217
 21
41.9777
 31
0.0
  0
LINE
  8
0
 62
     0
 10
59.3217
 20
41.9777
 30
0.0
 11
53.8289
 21
51.4946
 31
0.0
  0
LINE
  8
0
 62
     0
 10
6.22459
 20
38.3399
 30
0.0
 11
5.62102
 21
38.8454
 31
0.0
  0
LINE
  8
0
 62
     0
 10
5.62102
 20
38.8454
 30
0.0
 11
3.81716
 21
40.3655
 31
0.0
  0
LINE
  8
0
 62
     0
 10
3.81716
 20
40.3655
 30
0.0
 11
1.84106
 21
42.0356
 31
0.0
  0
LINE
  8
0
 62
     0
 10
1.84106
 20
42.0356
 30
0.0
 11
0.500228
 21
43.1793
 31
0.0
  0
LINE
  8
0
 62
     0
 10
0.500228
 20
43.1793
 30
0.0
 11
0.00413413
 21
43.6107
 31
0.0
  0
LINE
  8
0
 62
     0
 10
0.00413413
 20
43.6107
 30
0.0
 11
0
 21
43.6217
 31
0.0
  0
LINE
  8
0
 62
     0
 10
0
 20
43.6217
 30
0.0
 11
-0.00137804
 21
43.6273
 31
0.0
  0
LINE
  8
0
 62
     0
 10
-0.00137804
 20
43.6273
 30
0.0
 11
0.256315
 21
43.7349
 31
0.0
  0
LINE
  8
0
 62
     0
 10
0.256315
 20
43.7349
 30
0.0
 11
0.996322
 21
44.02
 31
0.0
  0
LINE
  8
0
 62
     0
 10
0.996322
 20
44.02
 30
0.0
 11
2.14836
 21
44.4542
 31
0.0
  0
LINE
  8
0
 62
     0
 10
2.14836
 20
44.4542
 30
0.0
 11
3.64628
 21
45.0109
 31
0.0
  0
LINE
  8
0
 62
     0
 10
3.64628
 20
45.0109
 30
0.0
 11
5.41845
 21
45.6653
 31
0.0
  0
LINE
  8
0
 62
     0
 10
5.41845
 20
45.6653
 30
0.0
 11
7.3987
 21
46.3931
 31
0.0
  0
LINE
  8
0
 62
     0
 10
7.3987
 20
46.3931
 30
0.0
 11
9.51812
 21
47.1689
 31
0.0
  0
LINE
  8
0
 62
     0
 10
9.51812
 20
47.1689
 30
0.0
 11
11.7064
 21
47.9683
 31
0.0
  0
LINE
  8
0
 62
     0
 10
11.7064
 20
47.9683
 30
0.0
 11
13.8961
 21
48.7659
 31
0.0
  0
LINE
  8
0
 62
     0
 10
13.8961
 20
48.7659
 30
0.0
 11
16.0197
 21
49.5363
 31
0.0
  0
LINE
  8
0
 62
     0
 10
16.0197
 20
49.5363
 30
0.0
 11
18.0055
 21
50.2543
 31
0.0
  0
LINE
  8
0
 62
     0
 10
18.0055
 20
50.2543
 30
0.0
 11
19.7872
 21
50.8953
 31
0.0
  0
LINE
  8
0
 62
     0
 10
19.7872
 20
50.8953
 30
0.0
 11
21.2962
 21
51.4339
 31
0.0
  0
LINE
  8
0
 62
     0
 10
21.2962
 20
51.4339
 30
0.0
 11
22.4634
 21
51.846
 31
0.0
  0
LINE
  8
0
 62
     0
 10
22.4634
 20
51.846
 30
0.0
 11
23.2199
 21
52.1049
 31
0.0
  0
LINE
  8
0
 62
     0
 10
23.2199
 20
52.1049
 30
0.0
 11
23.4776
 21
52.2069
 31
0.0
  0
LINE
  8
0
 62
     0
 10
23.4776
 20
52.2069
 30
0.0
 11
23.4969
 21
52.1878
 31
0.0
  0
LINE
  8
0
 62
     0
 10
23.4969
 20
52.1878
 30
0.0
 11
23.5121
 21
52.1727
 31
0.0
  0
LINE
  8
0
 62
     0
 10
23.5121
 20
52.1727
 30
0.0
 11
23.0463
 21
51.3514
 31
0.0
  0
LINE
  8
0
 62
     0
 10
23.0463
 20
51.3514
 30
0.0
 11
21.8185
 21
49.1864
 31
0.0
  0
LINE
  8
0
 62
     0
 10
21.8185
 20
49.1864
 30
0.0
 11
20.0697
 21
46.1352
 31
0.0
  0
LINE
  8
0
 62
     0
 10
20.0697
 20
46.1352
 30
0.0
 11
18.0578
 21
42.642
 31
0.0
  0
LINE
  8
0
 62
     0
 10
18.0578
 20
42.642
 30
0.0
 11
16.0376
 21
39.1527
 31
0.0
  0
LINE
  8
0
 62
     0
 10
16.0376
 20
39.1527
 30
0.0
 11
14.2668
 21
36.11
 31
0.0
  0
LINE
  8
0
 62
     0
 10
14.2668
 20
36.11
 30
0.0
 11
13.0004
 21
33.959
 31
0.0
  0
LINE
  8
0
 62
     0
 10
13.0004
 20
33.959
 30
0.0
 11
12.6228
 21
33.1432
 31
0.0
  0
LINE
  8
0
 62
     0
 10
12.6228
 20
33.1432
 30
0.0
 11
12.4974
 21
33.1432
 31
0.0
  0
LINE
  8
0
 62
     0
 10
12.4974
 20
33.1432
 30
0.0
 11
12.3665
 21
33.1432
 31
0.0
  0
LINE
  8
0
 62
     0
 10
12.3665
 20
33.1432
 30
0.0
 11
11.9765
 21
33.5539
 31
0.0
  0
LINE
  8
0
 62
     0
 10
11.9765
 20
33.5539
 30
0.0
 11
10.6206
 21
34.67
 31
0.0
  0
LINE
  8
0
 62
     0
 10
10.6206
 20
34.67
 30
0.0
 11
8.6348
 21
36.3224
 31
0.0
  0
LINE
  8
0
 62
     0
 10
8.6348
 20
36.3224
 30
0.0
 11
6.82544
 21
37.8354
 31
0.0
  0
LINE
  8
0
 62
     0
 10
6.82544
 20
37.8354
 30
0.0
 11
6.22459
 21
38.3399
 31
0.0
  0
LINE
  8
0
 62
     0
 10
47.7834
 20
17.3867
 30
0.0
 11
48.0314
 21
17.6265
 31
0.0
  0
LINE
  8
0
 62
     0
 10
48.0314
 20
17.6265
 30
0.0
 11
48.8237
 21
18.3003
 31
0.0
  0
LINE
  8
0
 62
     0
 10
48.8237
 20
18.3003
 30
0.0
 11
50.8621
 21
20.0243
 31
0.0
  0
LINE
  8
0
 62
     0
 10
50.8621
 20
20.0243
 30
0.0
 11
53.545
 21
22.2677
 31
0.0
  0
LINE
  8
0
 62
     0
 10
53.545
 20
22.2677
 30
0.0
 11
56.5284
 21
24.7454
 31
0.0
  0
LINE
  8
0
 62
     0
 10
56.5284
 20
24.7454
 30
0.0
 11
59.461
 21
27.168
 31
0.0
  0
LINE
  8
0
 62
     0
 10
59.461
 20
27.168
 30
0.0
 11
61.995
 21
29.2461
 31
0.0
  0
LINE
  8
0
 62
     0
 10
61.995
 20
29.2461
 30
0.0
 11
63.7826
 21
30.6903
 31
0.0
  0
LINE
  8
0
 62
     0
 10
63.7826
 20
30.6903
 30
0.0
 11
64.4645
 21
31.2263
 31
0.0
  0
LINE
  8
0
 62
     0
 10
64.4645
 20
31.2263
 30
0.0
 11
64.4758
 21
31.214
 31
0.0
  0
LINE
  8
0
 62
     0
 10
64.4758
 20
31.214
 30
0.0
 11
64.51
 21
31.1754
 31
0.0
  0
LINE
  8
0
 62
     0
 10
64.51
 20
31.1754
 30
0.0
 11
64.8547
 21
30.5842
 31
0.0
  0
LINE
  8
0
 62
     0
 10
64.8547
 20
30.5842
 30
0.0
 11
65.7698
 21
29.016
 31
0.0
  0
LINE
  8
0
 62
     0
 10
65.7698
 20
29.016
 30
0.0
 11
67.0401
 21
26.8207
 31
0.0
  0
LINE
  8
0
 62
     0
 10
67.0401
 20
26.8207
 30
0.0
 11
68.4886
 21
24.3114
 31
0.0
  0
LINE
  8
0
 62
     0
 10
68.4886
 20
24.3114
 30
0.0
 11
69.9354
 21
21.7964
 31
0.0
  0
LINE
  8
0
 62
     0
 10
69.9354
 20
21.7964
 30
0.0
 11
71.2004
 21
19.5874
 31
0.0
  0
LINE
  8
0
 62
     0
 10
71.2004
 20
19.5874
 30
0.0
 11
72.106
 21
17.9972
 31
0.0
  0
LINE
  8
0
 62
     0
 10
72.106
 20
17.9972
 30
0.0
 11
72.4475
 21
17.3964
 31
0.0
  0
LINE
  8
0
 62
     0
 10
72.4475
 20
17.3964
 30
0.0
 11
72.4726
 21
17.333
 31
0.0
  0
LINE
  8
0
 62
     0
 10
72.4726
 20
17.333
 30
0.0
 11
72.475
 21
17.3261
 31
0.0
  0
LINE
  8
0
 62
     0
 10
72.475
 20
17.3261
 30
0.0
 11
72.4105
 21
17.2723
 31
0.0
  0
LINE
  8
0
 62
     0
 10
72.4105
 20
17.2723
 30
0.0
 11
72.1127
 21
17.2255
 31
0.0
  0
LINE
  8
0
 62
     0
 10
72.1127
 20
17.2255
 30
0.0
 11
71.483
 21
17.1897
 31
0.0
  0
LINE
  8
0
 62
     0
 10
71.483
 20
17.1897
 30
0.0
 11
70.4261
 21
17.1635
 31
0.0
  0
LINE
  8
0
 62
     0
 10
70.4261
 20
17.1635
 30
0.0
 11
68.8481
 21
17.1456
 31
0.0
  0
LINE
  8
0
 62
     0
 10
68.8481
 20
17.1456
 30
0.0
 11
66.6531
 21
17.1345
 31
0.0
  0
LINE
  8
0
 62
     0
 10
66.6531
 20
17.1345
 30
0.0
 11
63.7452
 21
17.1304
 31
0.0
  0
LINE
  8
0
 62
     0
 10
63.7452
 20
17.1304
 30
0.0
 11
60.9604
 21
17.1276
 31
0.0
  0
LINE
  8
0
 62
     0
 10
60.9604
 20
17.1276
 30
0.0
 11
60.0329
 21
17.1276
 31
0.0
  0
LINE
  8
0
 62
     0
 10
60.0329
 20
17.1276
 30
0.0
 11
59.0158
 21
17.1276
 31
0.0
  0
LINE
  8
0
 62
     0
 10
59.0158
 20
17.1276
 30
0.0
 11
55.965
 21
17.129
 31
0.0
  0
LINE
  8
0
 62
     0
 10
55.965
 20
17.129
 30
0.0
 11
52.8934
 21
17.1331
 31
0.0
  0
LINE
  8
0
 62
     0
 10
52.8934
 20
17.1331
 30
0.0
 11
50.6829
 21
17.1428
 31
0.0
  0
LINE
  8
0
 62
     0
 10
50.6829
 20
17.1428
 30
0.0
 11
49.1973
 21
17.1621
 31
0.0
  0
LINE
  8
0
 62
     0
 10
49.1973
 20
17.1621
 30
0.0
 11
48.3002
 21
17.1938
 31
0.0
  0
LINE
  8
0
 62
     0
 10
48.3002
 20
17.1938
 30
0.0
 11
47.8564
 21
17.2393
 31
0.0
  0
LINE
  8
0
 62
     0
 10
47.8564
 20
17.2393
 30
0.0
 11
47.7284
 21
17.304
 31
0.0
  0
LINE
  8
0
 62
     0
 10
47.7284
 20
17.304
 30
0.0
 11
47.7654
 21
17.3702
 31
0.0
  0
LINE
  8
0
 62
     0
 10
47.7654
 20
17.3702
 30
0.0
 11
47.7834
 21
17.3867
 31
0.0
  0
LINE
  8
0
 62
     0
 10
41.1
 20
57.5606
 30
0.0
 11
40.101
 21
57.9258
 31
0.0
  0
LINE
  8
0
 62
     0
 10
40.101
 20
57.9258
 30
0.0
 11
37.1066
 21
59.0187
 31
0.0
  0
LINE
  8
0
 62
     0
 10
37.1066
 20
59.0187
 30
0.0
 11
33.795
 21
60.2273
 31
0.0
  0
LINE
  8
0
 62
     0
 10
33.795
 20
60.2273
 30
0.0
 11
31.5088
 21
61.0623
 31
0.0
  0
LINE
  8
0
 62
     0
 10
31.5088
 20
61.0623
 30
0.0
 11
30.631
 21
61.3819
 31
0.0
  0
LINE
  8
0
 62
     0
 10
30.631
 20
61.3819
 30
0.0
 11
30.5925
 21
61.3957
 31
0.0
  0
LINE
  8
0
 62
     0
 10
30.5925
 20
61.3957
 30
0.0
 11
30.5718
 21
61.4041
 31
0.0
  0
LINE
  8
0
 62
     0
 10
30.5718
 20
61.4041
 30
0.0
 11
30.5263
 21
61.4659
 31
0.0
  0
LINE
  8
0
 62
     0
 10
30.5263
 20
61.4659
 30
0.0
 11
30.547
 21
61.6437
 31
0.0
  0
LINE
  8
0
 62
     0
 10
30.547
 20
61.6437
 30
0.0
 11
30.6903
 21
61.995
 31
0.0
  0
LINE
  8
0
 62
     0
 10
30.6903
 20
61.995
 30
0.0
 11
30.9893
 21
62.5877
 31
0.0
  0
LINE
  8
0
 62
     0
 10
30.9893
 20
62.5877
 30
0.0
 11
31.4799
 21
63.4848
 31
0.0
  0
LINE
  8
0
 62
     0
 10
31.4799
 20
63.4848
 30
0.0
 11
32.1965
 21
64.7513
 31
0.0
  0
LINE
  8
0
 62
     0
 10
32.1965
 20
64.7513
 30
0.0
 11
33.1735
 21
66.4545
 31
0.0
  0
LINE
  8
0
 62
     0
 10
33.1735
 20
66.4545
 30
0.0
 11
34.1271
 21
68.1069
 31
0.0
  0
LINE
  8
0
 62
     0
 10
34.1271
 20
68.1069
 30
0.0
 11
34.4454
 21
68.6566
 31
0.0
  0
LINE
  8
0
 62
     0
 10
34.4454
 20
68.6566
 30
0.0
 11
34.8464
 21
69.3526
 31
0.0
  0
LINE
  8
0
 62
     0
 10
34.8464
 20
69.3526
 30
0.0
 11
36.0578
 21
71.4347
 31
0.0
  0
LINE
  8
0
 62
     0
 10
36.0578
 20
71.4347
 30
0.0
 11
37.393
 21
73.7059
 31
0.0
  0
LINE
  8
0
 62
     0
 10
37.393
 20
73.7059
 30
0.0
 11
38.3124
 21
75.238
 31
0.0
  0
LINE
  8
0
 62
     0
 10
38.3124
 20
75.238
 30
0.0
 11
38.6609
 21
75.7975
 31
0.0
  0
LINE
  8
0
 62
     0
 10
38.6609
 20
75.7975
 30
0.0
 11
38.6747
 21
75.795
 31
0.0
  0
LINE
  8
0
 62
     0
 10
38.6747
 20
75.795
 30
0.0
 11
38.6994
 21
75.7908
 31
0.0
  0
LINE
  8
0
 62
     0
 10
38.6994
 20
75.7908
 30
0.0
 11
38.8345
 21
75.5467
 31
0.0
  0
LINE
  8
0
 62
     0
 10
38.8345
 20
75.5467
 30
0.0
 11
39.2508
 21
74.8496
 31
0.0
  0
LINE
  8
0
 62
     0
 10
39.2508
 20
74.8496
 30
0.0
 11
39.8886
 21
73.769
 31
0.0
  0
LINE
  8
0
 62
     0
 10
39.8886
 20
73.769
 30
0.0
 11
40.7088
 21
72.3678
 31
0.0
  0
LINE
  8
0
 62
     0
 10
40.7088
 20
72.3678
 30
0.0
 11
41.6747
 21
70.7101
 31
0.0
  0
LINE
  8
0
 62
     0
 10
41.6747
 20
70.7101
 30
0.0
 11
42.7496
 21
68.8619
 31
0.0
  0
LINE
  8
0
 62
     0
 10
42.7496
 20
68.8619
 30
0.0
 11
43.8975
 21
66.8845
 31
0.0
  0
LINE
  8
0
 62
     0
 10
43.8975
 20
66.8845
 30
0.0
 11
45.0797
 21
64.8423
 31
0.0
  0
LINE
  8
0
 62
     0
 10
45.0797
 20
64.8423
 30
0.0
 11
46.2594
 21
62.8001
 31
0.0
  0
LINE
  8
0
 62
     0
 10
46.2594
 20
62.8001
 30
0.0
 11
47.4003
 21
60.821
 31
0.0
  0
LINE
  8
0
 62
     0
 10
47.4003
 20
60.821
 30
0.0
 11
48.4671
 21
58.9703
 31
0.0
  0
LINE
  8
0
 62
     0
 10
48.4671
 20
58.9703
 30
0.0
 11
49.4192
 21
57.3112
 31
0.0
  0
LINE
  8
0
 62
     0
 10
49.4192
 20
57.3112
 30
0.0
 11
50.2225
 21
55.9058
 31
0.0
  0
LINE
  8
0
 62
     0
 10
50.2225
 20
55.9058
 30
0.0
 11
50.8385
 21
54.821
 31
0.0
  0
LINE
  8
0
 62
     0
 10
50.8385
 20
54.821
 30
0.0
 11
51.23
 21
54.1182
 31
0.0
  0
LINE
  8
0
 62
     0
 10
51.23
 20
54.1182
 30
0.0
 11
51.3747
 21
53.8759
 31
0.0
  0
LINE
  8
0
 62
     0
 10
51.3747
 20
53.8759
 30
0.0
 11
51.3623
 21
53.8635
 31
0.0
  0
LINE
  8
0
 62
     0
 10
51.3623
 20
53.8635
 30
0.0
 11
51.3567
 21
53.8593
 31
0.0
  0
LINE
  8
0
 62
     0
 10
51.3567
 20
53.8593
 30
0.0
 11
50.5396
 21
54.1457
 31
0.0
  0
LINE
  8
0
 62
     0
 10
50.5396
 20
54.1457
 30
0.0
 11
48.3306
 21
54.937
 31
0.0
  0
LINE
  8
0
 62
     0
 10
48.3306
 20
54.937
 30
0.0
 11
45.0716
 21
56.1149
 31
0.0
  0
LINE
  8
0
 62
     0
 10
45.0716
 20
56.1149
 30
0.0
 11
42.092
 21
57.1997
 31
0.0
  0
LINE
  8
0
 62
     0
 10
42.092
 20
57.1997
 30
0.0
 11
41.1
 21
57.5606
 31
0.0
  0
LINE
  8
0
 62
     0
 10
4.77076
 20
17.191
 30
0.0
 11
4.77076
 21
17.2531
 31
0.0
  0
LINE
  8
0
 62
     0
 10
4.77076
 20
17.2531
 30
0.0
 11
4.90442
 21
17.4363
 31
0.0
  0
LINE
  8
0
 62
     0
 10
4.90442
 20
17.4363
 30
0.0
 11
5.28616
 21
18.1074
 31
0.0
  0
LINE
  8
0
 62
     0
 10
5.28616
 20
18.1074
 30
0.0
 11
5.87872
 21
19.1451
 31
0.0
  0
LINE
  8
0
 62
     0
 10
5.87872
 20
19.1451
 30
0.0
 11
6.64767
 21
20.4887
 31
0.0
  0
LINE
  8
0
 62
     0
 10
6.64767
 20
20.4887
 30
0.0
 11
7.5613
 21
22.0775
 31
0.0
  0
LINE
  8
0
 62
     0
 10
7.5613
 20
22.0775
 30
0.0
 11
8.58104
 21
23.8525
 31
0.0
  0
LINE
  8
0
 62
     0
 10
8.58104
 20
23.8525
 30
0.0
 11
9.67659
 21
25.7542
 31
0.0
  0
LINE
  8
0
 62
     0
 10
9.67659
 20
25.7542
 30
0.0
 11
10.8093
 21
27.722
 31
0.0
  0
LINE
  8
0
 62
     0
 10
10.8093
 20
27.722
 30
0.0
 11
11.9476
 21
29.6967
 31
0.0
  0
LINE
  8
0
 62
     0
 10
11.9476
 20
29.6967
 30
0.0
 11
13.0555
 21
31.6177
 31
0.0
  0
LINE
  8
0
 62
     0
 10
13.0555
 20
31.6177
 30
0.0
 11
14.1001
 21
33.4243
 31
0.0
  0
LINE
  8
0
 62
     0
 10
14.1001
 20
33.4243
 30
0.0
 11
15.0454
 21
35.0587
 31
0.0
  0
LINE
  8
0
 62
     0
 10
15.0454
 20
35.0587
 30
0.0
 11
15.8571
 21
36.4603
 31
0.0
  0
LINE
  8
0
 62
     0
 10
15.8571
 20
36.4603
 30
0.0
 11
16.5006
 21
37.568
 31
0.0
  0
LINE
  8
0
 62
     0
 10
16.5006
 20
37.568
 30
0.0
 11
16.9416
 21
38.3233
 31
0.0
  0
LINE
  8
0
 62
     0
 10
16.9416
 20
38.3233
 30
0.0
 11
17.0918
 21
38.5822
 31
0.0
  0
LINE
  8
0
 62
     0
 10
17.0918
 20
38.5822
 30
0.0
 11
17.1456
 21
38.6651
 31
0.0
  0
LINE
  8
0
 62
     0
 10
17.1456
 20
38.6651
 30
0.0
 11
17.1579
 21
38.6856
 31
0.0
  0
LINE
  8
0
 62
     0
 10
17.1579
 20
38.6856
 30
0.0
 11
17.22
 21
38.7297
 31
0.0
  0
LINE
  8
0
 62
     0
 10
17.22
 20
38.7297
 30
0.0
 11
17.3082
 21
38.614
 31
0.0
  0
LINE
  8
0
 62
     0
 10
17.3082
 20
38.614
 30
0.0
 11
17.4267
 21
38.2143
 31
0.0
  0
LINE
  8
0
 62
     0
 10
17.4267
 20
38.2143
 30
0.0
 11
17.5989
 21
37.4276
 31
0.0
  0
LINE
  8
0
 62
     0
 10
17.5989
 20
37.4276
 30
0.0
 11
17.8456
 21
36.1527
 31
0.0
  0
LINE
  8
0
 62
     0
 10
17.8456
 20
36.1527
 30
0.0
 11
18.186
 21
34.2883
 31
0.0
  0
LINE
  8
0
 62
     0
 10
18.186
 20
34.2883
 30
0.0
 11
18.6421
 21
31.7293
 31
0.0
  0
LINE
  8
0
 62
     0
 10
18.6421
 20
31.7293
 30
0.0
 11
19.0872
 21
29.213
 31
0.0
  0
LINE
  8
0
 62
     0
 10
19.0872
 20
29.213
 30
0.0
 11
19.236
 21
28.3738
 31
0.0
  0
LINE
  8
0
 62
     0
 10
19.236
 20
28.3738
 30
0.0
 11
19.4179
 21
27.3361
 31
0.0
  0
LINE
  8
0
 62
     0
 10
19.4179
 20
27.3361
 30
0.0
 11
19.9678
 21
24.2218
 31
0.0
  0
LINE
  8
0
 62
     0
 10
19.9678
 20
24.2218
 30
0.0
 11
20.5769
 21
20.7753
 31
0.0
  0
LINE
  8
0
 62
     0
 10
20.5769
 20
20.7753
 30
0.0
 11
20.9985
 21
18.3927
 31
0.0
  0
LINE
  8
0
 62
     0
 10
20.9985
 20
18.3927
 30
0.0
 11
21.1612
 21
17.4777
 31
0.0
  0
LINE
  8
0
 62
     0
 10
21.1612
 20
17.4777
 30
0.0
 11
21.1694
 21
17.4349
 31
0.0
  0
LINE
  8
0
 62
     0
 10
21.1694
 20
17.4349
 30
0.0
 11
21.2273
 21
17.1276
 31
0.0
  0
LINE
  8
0
 62
     0
 10
21.2273
 20
17.1276
 30
0.0
 11
12.999
 21
17.1276
 31
0.0
  0
LINE
  8
0
 62
     0
 10
12.999
 20
17.1276
 30
0.0
 11
12.1998
 21
17.1276
 31
0.0
  0
LINE
  8
0
 62
     0
 10
12.1998
 20
17.1276
 30
0.0
 11
9.80338
 21
17.1331
 31
0.0
  0
LINE
  8
0
 62
     0
 10
9.80338
 20
17.1331
 30
0.0
 11
7.18785
 21
17.1469
 31
0.0
  0
LINE
  8
0
 62
     0
 10
7.18785
 20
17.1469
 30
0.0
 11
5.41983
 21
17.1676
 31
0.0
  0
LINE
  8
0
 62
     0
 10
5.41983
 20
17.1676
 30
0.0
 11
4.77076
 21
17.1855
 31
0.0
  0
LINE
  8
0
 62
     0
 10
4.77076
 20
17.1855
 30
0.0
 11
4.77076
 21
17.191
 31
0.0
  0
ENDSEC
  0
EOF
